<?xml version="1.0" encoding="utf-8"?>
<!-- Generator: Adobe Illustrator 23.0.1, SVG Export Plug-In . SVG Version: 6.00 Build 0)  -->
<svg version="1.1" id="Layer_1" xmlns="http://www.w3.org/2000/svg" xmlns:xlink="http://www.w3.org/1999/xlink" x="0px" y="0px"
	 viewBox="0 0 363.48 147.44" style="enable-background:new 0 0 363.48 147.44;" xml:space="preserve">
<style type="text/css">
	.st0{fill:#41273B;}
	.st1{fill:url(#SVGID_1_);}
	.st2{fill:url(#SVGID_2_);}
	.st3{fill:#FFFFFF;}
</style>
<g>
	<path class="st0" d="M242.94,49.24l5.43,5.42c-3.5,2.49-6.1,3.39-9.49,3.39c-1.47,0-2.83-0.23-3.84-0.68
		c2.26,2.83,3.39,5.99,3.39,9.61c0,6.33-3.16,12.21-8.36,15.48c-2.83,1.81-6.44,2.49-10.51,2.49c-7.57,2.71-10.17,4.63-10.17,6.55
		c0,1.7,1.7,2.71,4.52,2.71h9.04c6.55,0,10.17,0.79,13.56,3.16c4.41,3.05,6.22,7.01,6.22,11.87c0,12.21-8.7,17.74-22.38,17.74
		c-17.63,0-24.41-6.33-24.41-14.35c0-2.03,0.34-3.73,1.13-5.99l9.27-0.79c-0.79,1.24-1.58,3.28-1.58,5.09
		c0,2.94,1.24,5.31,3.28,6.55c2.71,1.58,6.89,2.6,11.42,2.6c8.7,0,13.68-2.83,13.68-9.83c0-3.05-1.02-5.42-3.05-6.78
		c-2.15-1.47-5.54-2.03-11.08-2.03c-2.26,0-6.89,0.11-8.7,0.11c-6.67,0-10.62-3.05-10.62-8.14c0-4.52,2.49-7.23,10.17-9.61
		c-7.57-2.37-12.66-8.82-12.66-16.28c0-11.3,8.48-18.99,20.8-18.99c8.59,0,10.28,3.16,17.18,3.16
		C238.08,51.72,240.22,51.05,242.94,49.24z M217.73,56.02c-7.01,0-10.62,3.62-10.62,11.41c0,7.23,3.73,10.96,10.85,10.96
		c6.78,0,10.17-3.73,10.17-11.3C228.13,59.41,225.19,56.02,217.73,56.02z"/>
	<path class="st0" d="M288.02,94.56l3.39,5.65c-4.97,4.52-11.75,7.01-18.99,7.01c-15.6,0-24.98-11.3-24.98-29.95
		c0-9.49,2.03-15.6,6.78-21.25c4.52-5.31,10.06-7.8,16.84-7.8c6.1,0,11.41,2.15,15.26,6.1c4.86,4.97,6.22,10.28,6.44,23.73v1.24
		h-35.15v1.36c0,5.31,0.68,9.38,2.6,12.32c3.16,4.86,8.36,6.89,14.01,6.89C279.66,99.87,284.06,98.18,288.02,94.56z M257.62,72.63
		h25.77c-0.11-6.1-0.9-9.83-2.6-12.55c-1.92-3.05-5.88-4.97-10.17-4.97C262.59,55.11,258.07,60.99,257.62,72.63z"/>
	<path class="st0" d="M296.07,50.27l8.8-1.93c0,0,2.03,4.18,2.03,8.82c5.88-5.88,11.75-8.7,17.74-8.7c6.1,0,11.53,3.28,13.79,8.25
		c0.9,2.03,1.36,4.29,1.36,6.56v42.72h-8.93V67.89c0-5.99-0.45-7.46-2.03-9.38c-1.24-1.47-3.62-2.37-6.22-2.37
		c-4.52,0-11.53,3.62-15.6,7.91v41.93h-8.59v-43.4C298.42,54.55,296.07,50.27,296.07,50.27z"/>
	<path class="st0" d="M260.63,135.67v-7.72c0-0.7-0.12-1.18-0.37-1.44c-0.25-0.25-0.6-0.38-1.07-0.38c-0.43,0-0.9,0.13-1.39,0.38
		c-0.49,0.25-0.94,0.59-1.35,1.01v8.15h-2.49v-13.52c0-0.51-0.02-0.97-0.06-1.39s-0.09-0.78-0.17-1.08l2.49-0.54
		c0.07,0.33,0.13,0.72,0.17,1.17s0.06,0.95,0.06,1.5v2.42c0,0.31-0.01,0.59-0.02,0.83c-0.01,0.24-0.02,0.39-0.02,0.45
		c1.09-0.99,2.25-1.48,3.48-1.48c0.67,0,1.25,0.14,1.74,0.42c0.49,0.28,0.83,0.6,1.02,0.98c0.15,0.28,0.25,0.58,0.3,0.9
		c0.05,0.31,0.08,0.76,0.08,1.32v8.02H260.63z"/>
	<path class="st0" d="M269.09,130.66v0.18c0,0.39,0.04,0.78,0.12,1.17c0.08,0.39,0.23,0.74,0.45,1.04c0.22,0.31,0.51,0.55,0.86,0.74
		c0.36,0.19,0.82,0.28,1.37,0.28c1.02,0,1.96-0.37,2.83-1.12l0.97,1.5c-1.18,1-2.55,1.5-4.09,1.5c-0.81,0-1.53-0.14-2.18-0.42
		c-0.64-0.28-1.19-0.67-1.64-1.19s-0.8-1.14-1.04-1.88c-0.25-0.73-0.37-1.56-0.37-2.47c0-1,0.11-1.85,0.34-2.55
		c0.22-0.7,0.58-1.33,1.08-1.9c0.46-0.52,0.98-0.91,1.55-1.16c0.57-0.25,1.21-0.37,1.93-0.37c0.57,0,1.11,0.09,1.63,0.26
		c0.52,0.17,1.01,0.48,1.49,0.91c0.49,0.45,0.86,1.06,1.11,1.82c0.25,0.76,0.37,1.8,0.37,3.12v0.52H269.09z M273.32,128.84
		c0-0.93-0.18-1.65-0.55-2.17c-0.37-0.52-0.86-0.77-1.49-0.77c-0.7,0-1.24,0.26-1.61,0.77s-0.55,1.24-0.55,2.17H273.32z"/>
	<path class="st0" d="M287.54,136.14c-0.34-0.13-0.65-0.33-0.93-0.6c-0.28-0.26-0.48-0.57-0.62-0.93c-0.46,0.52-0.95,0.89-1.45,1.09
		c-0.5,0.2-1.06,0.3-1.67,0.3c-1.3,0-2.26-0.32-2.86-0.97c-0.61-0.64-0.91-1.46-0.91-2.45c0-1.32,0.48-2.3,1.44-2.96
		c0.96-0.66,2.35-0.99,4.18-0.99h0.76v-0.61c0-0.66-0.09-1.16-0.28-1.49c-0.19-0.34-0.62-0.51-1.29-0.51
		c-0.36,0-0.72,0.06-1.09,0.17c-0.37,0.11-0.71,0.24-1.02,0.38c-0.31,0.14-0.58,0.29-0.81,0.44l-0.47,0.31l-1.1-1.77
		c0.85-0.54,1.66-0.93,2.41-1.18c0.76-0.25,1.56-0.37,2.41-0.37c1.8,0,2.95,0.63,3.46,1.89c0.04,0.12,0.08,0.25,0.11,0.4
		c0.03,0.15,0.05,0.33,0.06,0.54c0.01,0.21,0.01,0.46,0.01,0.76v1.08l-0.04,3.26c0,0.39,0.01,0.71,0.02,0.98
		c0.01,0.26,0.06,0.49,0.14,0.68c0.07,0.19,0.18,0.37,0.3,0.52c0.13,0.15,0.3,0.3,0.53,0.45L287.54,136.14z M285.42,130.33
		c-0.03,0-0.09,0-0.19-0.01c-0.1-0.01-0.18-0.01-0.26-0.01c-0.61,0-1.13,0.05-1.54,0.14c-0.41,0.09-0.74,0.22-0.99,0.4
		c-0.25,0.18-0.42,0.4-0.53,0.67c-0.1,0.27-0.16,0.58-0.16,0.94c0,0.54,0.14,0.97,0.42,1.28c0.28,0.31,0.66,0.47,1.16,0.47
		c0.39,0,0.76-0.11,1.12-0.33c0.36-0.22,0.67-0.51,0.92-0.86L285.42,130.33z"/>
	<path class="st0" d="M296.23,135.65c-0.45,0.18-0.94,0.27-1.48,0.27c-0.63,0-1.11-0.12-1.45-0.37c-0.34-0.25-0.58-0.54-0.74-0.88
		c-0.16-0.34-0.25-0.69-0.27-1.06c-0.02-0.37-0.03-0.67-0.03-0.91v-9.68c0-0.39,0-0.74-0.01-1.04c-0.01-0.31-0.02-0.59-0.05-0.84
		c-0.02-0.25-0.04-0.5-0.07-0.73c-0.02-0.23-0.06-0.47-0.1-0.71l2.54-0.56c0.09,0.34,0.15,0.76,0.17,1.26
		c0.02,0.49,0.03,1.12,0.03,1.86v9.63c0,0.39,0,0.7,0.01,0.93c0.01,0.23,0.02,0.42,0.04,0.56c0.02,0.14,0.05,0.25,0.08,0.34
		c0.03,0.08,0.07,0.15,0.11,0.21c0.07,0.11,0.19,0.18,0.35,0.22c0.16,0.04,0.31,0.03,0.46-0.04L296.23,135.65z"/>
	<path class="st0" d="M305.46,135.47c-0.72,0.33-1.46,0.49-2.22,0.49c-0.55,0-1.02-0.08-1.39-0.22c-0.37-0.15-0.68-0.36-0.91-0.63
		c-0.23-0.27-0.4-0.58-0.51-0.93c-0.1-0.35-0.16-0.73-0.16-1.13v-7.03h-1.26v-1.71h1.26c0-0.48,0-0.96,0.01-1.44
		c0.01-0.48,0.04-0.98,0.1-1.42l2.54-0.56c-0.06,0.46-0.11,1.01-0.15,1.63c-0.04,0.62-0.06,1.22-0.06,1.79h2.72l-0.65,1.71h-2.09
		v6.38c0,0.7,0.1,1.18,0.29,1.44c0.19,0.25,0.56,0.38,1.1,0.38c0.3,0,0.65-0.07,1.06-0.22L305.46,135.47z"/>
	<path class="st0" d="M315.75,135.67v-7.72c0-0.7-0.12-1.18-0.37-1.44c-0.25-0.25-0.6-0.38-1.07-0.38c-0.43,0-0.9,0.13-1.39,0.38
		c-0.49,0.25-0.94,0.59-1.35,1.01v8.15h-2.49v-13.52c0-0.51-0.02-0.97-0.06-1.39c-0.04-0.42-0.09-0.78-0.17-1.08l2.49-0.54
		c0.07,0.33,0.13,0.72,0.17,1.17s0.06,0.95,0.06,1.5v2.42c0,0.31-0.01,0.59-0.02,0.83c-0.01,0.24-0.02,0.39-0.02,0.45
		c1.09-0.99,2.25-1.48,3.48-1.48c0.67,0,1.25,0.14,1.74,0.42c0.49,0.28,0.83,0.6,1.02,0.98c0.15,0.28,0.25,0.58,0.3,0.9
		c0.05,0.31,0.08,0.76,0.08,1.32v8.02H315.75z"/>
	<path class="st0" d="M330.02,134.46c-0.52,0.52-1.07,0.91-1.64,1.15c-0.57,0.24-1.23,0.36-2,0.36c-1.56,0-2.75-0.51-3.58-1.54
		c-0.83-1.03-1.25-2.46-1.25-4.3c0-1.03,0.14-1.93,0.43-2.69c0.28-0.76,0.66-1.4,1.12-1.91s1-0.89,1.61-1.13
		c0.61-0.25,1.22-0.37,1.85-0.37c0.63,0,1.18,0.09,1.66,0.26c0.48,0.17,0.97,0.5,1.48,0.98l-1.23,1.64
		c-0.64-0.58-1.28-0.88-1.91-0.88c-0.82,0-1.42,0.38-1.8,1.15c-0.17,0.34-0.28,0.78-0.36,1.3c-0.08,0.52-0.11,1.14-0.11,1.86
		c0,1.51,0.25,2.54,0.76,3.1c0.39,0.43,0.89,0.65,1.5,0.65c0.78,0,1.54-0.37,2.29-1.12L330.02,134.46z"/>
	<path class="st0" d="M341.25,136.14c-0.34-0.13-0.65-0.33-0.93-0.6c-0.28-0.26-0.48-0.57-0.62-0.93c-0.46,0.52-0.95,0.89-1.45,1.09
		c-0.5,0.2-1.06,0.3-1.67,0.3c-1.3,0-2.26-0.32-2.86-0.97c-0.61-0.64-0.91-1.46-0.91-2.45c0-1.32,0.48-2.3,1.44-2.96
		c0.96-0.66,2.35-0.99,4.18-0.99h0.76v-0.61c0-0.66-0.09-1.16-0.28-1.49c-0.19-0.34-0.62-0.51-1.29-0.51
		c-0.36,0-0.72,0.06-1.09,0.17c-0.37,0.11-0.71,0.24-1.02,0.38c-0.31,0.14-0.58,0.29-0.81,0.44l-0.47,0.31l-1.1-1.77
		c0.85-0.54,1.66-0.93,2.41-1.18c0.76-0.25,1.56-0.37,2.41-0.37c1.8,0,2.95,0.63,3.46,1.89c0.04,0.12,0.08,0.25,0.11,0.4
		c0.03,0.15,0.05,0.33,0.06,0.54c0.01,0.21,0.01,0.46,0.01,0.76v1.08l-0.04,3.26c0,0.39,0.01,0.71,0.02,0.98
		c0.01,0.26,0.06,0.49,0.14,0.68c0.07,0.19,0.18,0.37,0.3,0.52c0.13,0.15,0.3,0.3,0.53,0.45L341.25,136.14z M339.14,130.33
		c-0.03,0-0.09,0-0.19-0.01c-0.1-0.01-0.18-0.01-0.26-0.01c-0.61,0-1.13,0.05-1.54,0.14c-0.41,0.09-0.74,0.22-0.99,0.4
		c-0.25,0.18-0.42,0.4-0.53,0.67c-0.1,0.27-0.16,0.58-0.16,0.94c0,0.54,0.14,0.97,0.42,1.28c0.28,0.31,0.66,0.47,1.16,0.47
		c0.39,0,0.76-0.11,1.12-0.33c0.36-0.22,0.67-0.51,0.92-0.86L339.14,130.33z"/>
	<path class="st0" d="M351.33,126.46c-0.12-0.04-0.23-0.08-0.34-0.11c-0.11-0.03-0.22-0.04-0.36-0.04c-0.52,0-0.98,0.17-1.37,0.49
		c-0.39,0.33-0.64,0.73-0.76,1.19v7.68h-2.47v-8.02c0-0.72-0.04-1.32-0.11-1.81c-0.08-0.49-0.2-0.98-0.32-1.33l2.3-0.5
		c0.28,0.54,0.43,1.14,0.43,1.8c0.45-0.63,0.91-1.09,1.37-1.38c0.46-0.29,0.97-0.44,1.53-0.44c0.33,0,0.62,0.06,0.88,0.18
		L351.33,126.46z"/>
	<path class="st0" d="M356.7,130.66v0.18c0,0.39,0.04,0.78,0.12,1.17c0.08,0.39,0.23,0.74,0.45,1.04c0.22,0.31,0.51,0.55,0.86,0.74
		c0.36,0.19,0.82,0.28,1.37,0.28c1.02,0,1.96-0.37,2.83-1.12l0.97,1.5c-1.18,1-2.55,1.5-4.09,1.5c-0.81,0-1.53-0.14-2.18-0.42
		c-0.64-0.28-1.19-0.67-1.64-1.19s-0.8-1.14-1.04-1.88c-0.25-0.73-0.37-1.56-0.37-2.47c0-1,0.11-1.85,0.34-2.55
		c0.22-0.7,0.58-1.33,1.08-1.9c0.46-0.52,0.98-0.91,1.55-1.16c0.57-0.25,1.21-0.37,1.93-0.37c0.57,0,1.11,0.09,1.63,0.26
		c0.52,0.17,1.01,0.48,1.49,0.91c0.49,0.45,0.86,1.06,1.11,1.82c0.25,0.76,0.37,1.8,0.37,3.12v0.52H356.7z M360.92,128.84
		c0-0.93-0.18-1.65-0.55-2.17s-0.86-0.77-1.49-0.77c-0.7,0-1.24,0.26-1.61,0.77s-0.55,1.24-0.55,2.17H360.92z"/>
	<g>
		<linearGradient id="SVGID_1_" gradientUnits="userSpaceOnUse" x1="0" y1="73.7179" x2="190.2762" y2="73.7179">
			<stop  offset="0" style="stop-color:#DC6B2F"/>
			<stop  offset="0.3872" style="stop-color:#C55434"/>
			<stop  offset="1" style="stop-color:#A4343A"/>
		</linearGradient>
		<path class="st1" d="M51.04,0L0,51.56v95.88h139.24l37.22-37.74c-0.14,0-0.27,0.01-0.41,0.01c-2.94,0-5.2-0.56-7.35-1.58
			c-3.96-1.92-5.43-5.54-5.43-11.19V58.28h-10.4l4.27-6.67h6.13c0-5.43,0.9-14.24,0.9-14.24l9.27-2.03c0,0-1.13,8.82-1.13,16.28
			h14.13v6.67h-14.47v36.28c0,6.22,1.7,8.36,7.23,8.36c2.02,0,3.37-0.23,4.65-0.74l6.42-6.51l0-95.68H51.04z M54.11,107.9h-8.93
			V69.81c0-5.99-0.45-7.46-2.03-9.38c-1.24-1.47-3.62-2.37-6.22-2.37c-4.52,0-11.53,3.62-15.6,7.91v41.93h-8.59V64.5
			c0-8.02-2.37-12.31-2.37-12.31l8.81-1.93c0,0,2.03,4.18,2.03,8.82c5.88-5.88,11.75-8.7,17.74-8.7c6.1,0,11.53,3.28,13.79,8.25
			c0.9,2.03,1.36,4.29,1.36,6.56V107.9z M104.64,81.23H69.49v1.36c0,5.31,0.68,9.38,2.6,12.32c3.16,4.86,8.36,6.89,14.01,6.89
			c5.43,0,9.83-1.7,13.79-5.31l3.39,5.65c-4.97,4.52-11.75,7.01-18.99,7.01c-15.6,0-24.98-11.3-24.98-29.95
			c0-9.49,2.03-15.6,6.78-21.25c4.52-5.31,10.06-7.8,16.84-7.8c6.1,0,11.41,2.15,15.26,6.1c4.86,4.97,6.22,10.28,6.44,23.73V81.23z
			 M156.61,107.9h-10.74l-15.26-23.96l-15.26,23.96h-10.4l21.02-31.19l-17.41-25.09h10.85l11.19,18.76l10.85-18.76h10.29
			l-16.73,25.09L156.61,107.9z"/>
		<linearGradient id="SVGID_2_" gradientUnits="userSpaceOnUse" x1="3.8557" y1="65.8005" x2="190.2762" y2="65.8005">
			<stop  offset="0" style="stop-color:#DC6B2F"/>
			<stop  offset="0.3872" style="stop-color:#C55434"/>
			<stop  offset="1" style="stop-color:#A4343A"/>
		</linearGradient>
		<path class="st2" d="M82.49,57.04c-8.02,0-12.55,5.88-13,17.52h25.77c-0.11-6.1-0.91-9.83-2.6-12.55
			C90.74,58.96,86.78,57.04,82.49,57.04z"/>
	</g>
	<path class="st3" d="M38.97,50.37c-5.99,0-11.87,2.83-17.74,8.7c0-4.63-2.03-8.82-2.03-8.82l-8.81,1.93c0,0,2.37,4.28,2.37,12.31
		v43.4h8.59V65.97c4.07-4.29,11.08-7.91,15.6-7.91c2.6,0,4.97,0.9,6.22,2.37c1.58,1.92,2.03,3.39,2.03,9.38v38.09h8.93V65.18
		c0-2.26-0.45-4.52-1.36-6.56C50.5,53.65,45.07,50.37,38.97,50.37z"/>
	<path class="st3" d="M82.94,50.15c-6.78,0-12.32,2.49-16.84,7.8c-4.75,5.65-6.78,11.75-6.78,21.25c0,18.65,9.38,29.95,24.98,29.95
		c7.23,0,14.01-2.49,18.99-7.01l-3.39-5.65c-3.96,3.62-8.36,5.31-13.79,5.31c-5.65,0-10.85-2.03-14.01-6.89
		c-1.92-2.94-2.6-7.01-2.6-12.32v-1.36h35.15v-1.24c-0.23-13.45-1.58-18.76-6.44-23.73C94.35,52.29,89.04,50.15,82.94,50.15z
		 M69.49,74.56c0.45-11.64,4.97-17.52,13-17.52c4.29,0,8.25,1.92,10.17,4.97c1.7,2.71,2.49,6.44,2.6,12.55H69.49z"/>
	<polygon class="st3" points="151.75,51.62 141.47,51.62 130.62,70.38 119.43,51.62 108.58,51.62 125.98,76.71 104.96,107.9 
		115.36,107.9 130.62,83.94 145.87,107.9 156.61,107.9 135.03,76.71 	"/>
	<path class="st3" d="M171.97,94.56V58.28h14.47v-6.67h-14.13c0-7.46,1.13-16.28,1.13-16.28l-9.27,2.03c0,0-0.9,8.82-0.9,14.24
		h-6.13l-4.27,6.67h10.4v38.65c0,5.65,1.47,9.27,5.43,11.19c2.15,1.02,4.41,1.58,7.35,1.58c0.14,0,0.27-0.01,0.41-0.01l7.4-7.51
		c-1.28,0.51-2.63,0.74-4.65,0.74C173.67,102.93,171.97,100.78,171.97,94.56z"/>
	<g>
		<path class="st0" d="M355.75,98.43c-0.29-0.67-0.68-1.24-1.18-1.72s-1.07-0.87-1.73-1.15s-1.36-0.42-2.1-0.42
			c-0.75,0-1.46,0.14-2.12,0.42s-1.24,0.66-1.73,1.15s-0.88,1.06-1.17,1.72s-0.43,1.39-0.43,2.17c0,0.78,0.14,1.5,0.43,2.17
			s0.67,1.24,1.17,1.73c0.5,0.48,1.07,0.87,1.73,1.15c0.66,0.28,1.37,0.42,2.12,0.42c0.74,0,1.44-0.14,2.1-0.42
			c0.66-0.28,1.24-0.66,1.73-1.15c0.5-0.49,0.89-1.06,1.18-1.73s0.43-1.39,0.43-2.17C356.18,99.82,356.04,99.1,355.75,98.43z
			 M355.1,102.53c-0.25,0.59-0.59,1.11-1.02,1.55c-0.43,0.44-0.93,0.79-1.51,1.04s-1.19,0.38-1.84,0.38c-0.66,0-1.28-0.13-1.86-0.38
			s-1.08-0.59-1.51-1.04c-0.42-0.44-0.76-0.96-1.01-1.55c-0.25-0.6-0.38-1.24-0.38-1.93c0-0.69,0.12-1.33,0.38-1.93
			c0.25-0.59,0.59-1.11,1.01-1.55c0.42-0.44,0.93-0.79,1.51-1.04c0.58-0.25,1.2-0.38,1.86-0.38c0.65,0,1.26,0.13,1.84,0.38
			c0.58,0.25,1.08,0.6,1.51,1.04c0.43,0.44,0.77,0.96,1.02,1.55s0.38,1.24,0.38,1.93C355.48,101.29,355.35,101.93,355.1,102.53z"/>
		<path class="st0" d="M352.01,102.13c-0.09-0.15-0.18-0.29-0.27-0.42c-0.09-0.13-0.16-0.25-0.23-0.37
			c-0.07-0.09-0.15-0.19-0.23-0.28c-0.09-0.09-0.19-0.18-0.32-0.26c0.45,0,0.81-0.14,1.07-0.41c0.26-0.27,0.39-0.62,0.39-1.04
			c0-0.27-0.05-0.5-0.15-0.67c-0.1-0.18-0.21-0.32-0.33-0.43c-0.14-0.12-0.3-0.21-0.49-0.28c-0.19-0.06-0.47-0.1-0.82-0.1h-1.23
			v5.36h0.53v-2.43h0.21c0.12,0,0.22,0.02,0.31,0.07c0.09,0.05,0.17,0.11,0.26,0.2c0.18,0.2,0.34,0.4,0.47,0.62
			c0.13,0.21,0.29,0.47,0.47,0.77c0.1,0.18,0.18,0.33,0.24,0.45c0.06,0.12,0.12,0.23,0.17,0.32h0.64L352.01,102.13z M350.56,100.44
			h-0.64v-2.13h0.58c0.21,0,0.39,0.02,0.53,0.04c0.14,0.03,0.26,0.08,0.35,0.14c0.13,0.07,0.24,0.18,0.34,0.33
			c0.1,0.15,0.15,0.34,0.15,0.56c0,0.34-0.11,0.61-0.32,0.8C351.34,100.35,351.02,100.44,350.56,100.44z"/>
	</g>
</g>
</svg>
